<svg width="18" height="18" viewBox="0 0 18 18" fill="none" xmlns="http://www.w3.org/2000/svg">
<g id="Instagram">
<g id="Instagram_2">
<g id="instagram">
<path d="M14.25 4.875C14.25 5.49632 13.7463 6 13.125 6C12.5037 6 12 5.49632 12 4.875C12 4.25368 12.5037 3.75 13.125 3.75C13.7463 3.75 14.25 4.25368 14.25 4.875Z" fill="white"/>
<path fill-rule="evenodd" clip-rule="evenodd" d="M9 12.75C11.0711 12.75 12.75 11.0711 12.75 9C12.75 6.92893 11.0711 5.25 9 5.25C6.92893 5.25 5.25 6.92893 5.25 9C5.25 11.0711 6.92893 12.75 9 12.75ZM9 11.25C10.2426 11.25 11.25 10.2426 11.25 9C11.25 7.75736 10.2426 6.75 9 6.75C7.75736 6.75 6.75 7.75736 6.75 9C6.75 10.2426 7.75736 11.25 9 11.25Z" fill="white"/>
<path fill-rule="evenodd" clip-rule="evenodd" d="M1.5 8.7C1.5 6.17976 1.5 4.91965 1.99047 3.95704C2.4219 3.11031 3.11031 2.4219 3.95704 1.99047C4.91965 1.5 6.17976 1.5 8.7 1.5H9.3C11.8202 1.5 13.0804 1.5 14.043 1.99047C14.8897 2.4219 15.5781 3.11031 16.0095 3.95704C16.5 4.91965 16.5 6.17976 16.5 8.7V9.3C16.5 11.8202 16.5 13.0804 16.0095 14.043C15.5781 14.8897 14.8897 15.5781 14.043 16.0095C13.0804 16.5 11.8202 16.5 9.3 16.5H8.7C6.17976 16.5 4.91965 16.5 3.95704 16.0095C3.11031 15.5781 2.4219 14.8897 1.99047 14.043C1.5 13.0804 1.5 11.8202 1.5 9.3V8.7ZM8.7 3H9.3C10.5849 3 11.4583 3.00117 12.1334 3.05633C12.7911 3.11006 13.1274 3.20745 13.362 3.32698C13.9265 3.6146 14.3854 4.07354 14.673 4.63803C14.7926 4.87263 14.8899 5.20893 14.9437 5.86656C14.9988 6.54169 15 7.41513 15 8.7V9.3C15 10.5849 14.9988 11.4583 14.9437 12.1334C14.8899 12.7911 14.7926 13.1274 14.673 13.362C14.3854 13.9265 13.9265 14.3854 13.362 14.673C13.1274 14.7926 12.7911 14.8899 12.1334 14.9437C11.4583 14.9988 10.5849 15 9.3 15H8.7C7.41513 15 6.54169 14.9988 5.86656 14.9437C5.20893 14.8899 4.87263 14.7926 4.63803 14.673C4.07354 14.3854 3.6146 13.9265 3.32698 13.362C3.20745 13.1274 3.11006 12.7911 3.05633 12.1334C3.00117 11.4583 3 10.5849 3 9.3V8.7C3 7.41513 3.00117 6.54169 3.05633 5.86656C3.11006 5.20893 3.20745 4.87263 3.32698 4.63803C3.6146 4.07354 4.07354 3.6146 4.63803 3.32698C4.87263 3.20745 5.20893 3.11006 5.86656 3.05633C6.54169 3.00117 7.41513 3 8.7 3Z" fill="white"/>
</g>
</g>
</g>
</svg>
