<svg width="18" height="18" viewBox="0 0 18 18" fill="none" xmlns="http://www.w3.org/2000/svg">
<g id="Twitter">
<g id="Twitter_2">
<path id="twitter" d="M5.64991 16.5C3.57026 16.5 1.63168 15.8864 0 14.8276C1.38535 14.9185 3.83019 14.7007 5.35087 13.2292C3.06326 13.1227 2.0316 11.3428 1.89703 10.5822C2.0914 10.6582 3.01841 10.7495 3.54172 10.5365C0.91022 9.86714 0.506525 7.52434 0.596235 6.80933C1.08964 7.15923 1.92694 7.28093 2.25587 7.25051C-0.196205 5.47059 0.685945 2.7931 1.11954 2.21501C2.87924 4.68826 5.51649 6.07733 8.7791 6.15459C8.71759 5.88089 8.6851 5.59593 8.6851 5.30325C8.6851 3.20277 10.3586 1.5 12.423 1.5C13.5016 1.5 14.4735 1.96484 15.1558 2.70837C15.8766 2.53703 16.9613 2.13591 17.4916 1.78905C17.2243 2.76268 16.3922 3.57488 15.8888 3.87592C15.8847 3.86563 15.893 3.88616 15.8888 3.87592C16.331 3.80807 17.5274 3.57481 18 3.24949C17.7663 3.79647 16.884 4.70591 16.16 5.21506C16.2947 11.2422 11.7492 16.5 5.64991 16.5Z" fill="white"/>
</g>
</g>
</svg>
